
            <svg data-logo="logo" xmlns="http://www.w3.org/2000/svg" viewBox="0 0 197 40">
                <g id="logogram" transform="translate(0, 0)"><path d="M68.75 0H96.25L72.5 40H45L68.75 0Z" fill="#FF7A00"/><path d="M43.75 0H63.75L40 40H20L43.75 0Z" fill="#FF9736"/><path d="M23.75 0H38.75L15 40H0L23.75 0Z" fill="#FFBC7D"/></g>
                <g id="logotype" transform="translate(103, 2.5)"><path fill="#ffffff" d="M13.31 23.94L13.31 23.94L13.31 35L8.19 35L8.19 15.89L13.02 15.89L13.11 20.66L12.80 20.66Q13.55 18.27 15.08 16.96Q16.61 15.65 19.04 15.65L19.04 15.65Q21.02 15.65 22.49 16.52Q23.96 17.38 24.78 19.00Q25.60 20.61 25.60 22.85L25.60 22.85L25.60 35L20.48 35L20.48 23.74Q20.48 21.96 19.56 20.95Q18.65 19.94 17.02 19.94L17.02 19.94Q15.95 19.94 15.10 20.41Q14.25 20.88 13.78 21.77Q13.31 22.66 13.31 23.94ZM32.83 35L27.70 35L27.70 15.89L32.45 15.89L32.71 20.64L32.33 20.64Q32.78 18.88 33.64 17.77Q34.50 16.66 35.67 16.13Q36.83 15.60 38.11 15.60L38.11 15.60Q40.18 15.60 41.44 16.91Q42.71 18.22 43.31 20.95L43.31 20.95L42.71 20.95Q43.13 19.12 44.10 17.94Q45.07 16.75 46.39 16.18Q47.71 15.60 49.17 15.60L49.17 15.60Q50.93 15.60 52.30 16.37Q53.68 17.14 54.47 18.59Q55.27 20.03 55.27 22.11L55.27 22.11L55.27 35L50.14 35L50.14 23.09Q50.14 21.46 49.26 20.68Q48.38 19.89 47.10 19.89L47.10 19.89Q46.14 19.89 45.43 20.31Q44.72 20.73 44.34 21.48Q43.95 22.23 43.95 23.24L43.95 23.24L43.95 35L39.00 35L39.00 22.95Q39.00 21.55 38.17 20.72Q37.34 19.89 36.02 19.89L36.02 19.89Q35.12 19.89 34.39 20.30Q33.67 20.71 33.25 21.51Q32.83 22.30 32.83 23.45L32.83 23.45L32.83 35ZM64.36 35.32L64.36 35.32Q62.15 35.32 60.38 34.19Q58.62 33.05 57.59 30.86Q56.56 28.66 56.56 25.48L56.56 25.48Q56.56 22.22 57.62 20.03Q58.68 17.84 60.44 16.75Q62.20 15.65 64.32 15.65L64.32 15.65Q65.95 15.65 67.02 16.20Q68.10 16.75 68.77 17.55Q69.43 18.35 69.76 19.11L69.76 19.11L69.93 19.11L69.93 9.54L75.06 9.54L75.06 35L70.01 35L70.01 31.94L69.76 31.94Q69.42 32.71 68.74 33.49Q68.07 34.27 66.99 34.79Q65.91 35.32 64.36 35.32ZM65.93 31.21L65.93 31.21Q67.23 31.21 68.15 30.49Q69.07 29.77 69.55 28.48Q70.03 27.19 70.03 25.46L70.03 25.46Q70.03 23.72 69.56 22.45Q69.09 21.17 68.17 20.47Q67.25 19.76 65.93 19.76L65.93 19.76Q64.58 19.76 63.67 20.49Q62.75 21.23 62.29 22.51Q61.83 23.79 61.83 25.46L61.83 25.46Q61.83 27.14 62.30 28.44Q62.77 29.74 63.68 30.47Q64.60 31.21 65.93 31.21ZM82.49 35.38L82.49 35.38Q80.68 35.38 79.23 34.74Q77.79 34.09 76.96 32.82Q76.13 31.55 76.13 29.65L76.13 29.65Q76.13 28.06 76.72 26.98Q77.31 25.91 78.33 25.26Q79.34 24.61 80.63 24.27Q81.92 23.93 83.34 23.79L83.34 23.79Q85.00 23.62 86.02 23.47Q87.03 23.33 87.50 23.01Q87.97 22.70 87.97 22.08L87.97 22.08L87.97 21.99Q87.97 21.17 87.63 20.61Q87.29 20.05 86.62 19.75Q85.96 19.45 84.98 19.45L84.98 19.45Q83.99 19.45 83.26 19.75Q82.52 20.05 82.06 20.54Q81.60 21.04 81.38 21.65L81.38 21.65L76.68 20.87Q77.17 19.21 78.32 18.05Q79.46 16.88 81.16 16.27Q82.86 15.65 84.98 15.65L84.98 15.65Q86.54 15.65 87.99 16.02Q89.44 16.39 90.60 17.16Q91.75 17.93 92.43 19.16Q93.10 20.39 93.10 22.13L93.10 22.13L93.10 35L88.25 35L88.25 32.35L88.08 32.35Q87.61 33.24 86.85 33.91Q86.08 34.59 84.99 34.98Q83.91 35.38 82.49 35.38ZM83.94 31.77L83.94 31.77Q85.15 31.77 86.07 31.29Q86.98 30.81 87.50 29.99Q88.01 29.17 88.01 28.16L88.01 28.16L88.01 26.10Q87.79 26.27 87.32 26.40Q86.86 26.54 86.30 26.64Q85.74 26.75 85.19 26.83Q84.64 26.92 84.21 26.97L84.21 26.97Q83.27 27.10 82.56 27.41Q81.84 27.72 81.45 28.22Q81.05 28.73 81.05 29.51L81.05 29.51Q81.05 30.25 81.43 30.75Q81.80 31.26 82.45 31.51Q83.09 31.77 83.94 31.77Z"/></g>
                
            </svg>
        